<?xml version="1.0"?>
<svg xmlns="http://www.w3.org/2000/svg" xmlns:xlink="http://www.w3.org/1999/xlink" version="1.1" id="Capa_1" x="0px" y="0px" viewBox="0 0 19.704 19.704" style="enable-background:new 0 0 19.704 19.704;" xml:space="preserve" width="512px" height="512px" class=""><g><g>
	<g>
		<path d="M16.062,5.904l-0.096,0.429h-0.181c0.158,0.264,0.248,0.58,0.248,0.926    c0,1.082-0.816,1.898-1.898,1.898c-0.958,0-1.68-0.732-1.68-1.705c0-0.498,0.176-0.945,0.468-1.285l0.07-0.624    c0.012-0.112,0.024-0.225,0.037-0.325c0.066-0.45,0.219-0.872,0.466-1.296c-1.088-0.498-2.329-0.757-3.645-0.757    c-4.303,0-7.804,2.762-7.804,7.658s3.501,8.881,7.804,8.881c4.304,0,7.806-3.984,7.806-8.881    C17.658,8.807,17.061,7.152,16.062,5.904z M9.852,18.499c-3.724,0-6.744-3.434-6.744-7.674h2.328l3.055-2.272l-1.223,2.292    c0,0,6.05,1.26,9.327-0.02C16.595,15.065,13.578,18.499,9.852,18.499z" data-original="#030104" class="active-path" data-old_color="#3a3a3a" fill="#3a3a3a"/>
		<path d="M8.304,13.501c0-0.563-0.455-1.018-1.016-1.018c-0.563,0-1.019,0.455-1.019,1.018    s0.456,1.02,1.019,1.02C7.849,14.52,8.304,14.063,8.304,13.501z M7.494,14.149c-0.288,0-0.521-0.234-0.521-0.521    c0-0.289,0.232-0.523,0.521-0.523s0.524,0.234,0.524,0.523C8.019,13.915,7.783,14.149,7.494,14.149z" data-original="#030104" class="active-path" data-old_color="#3a3a3a" fill="#3a3a3a"/>
		<path d="M12.519,12.483c-0.562,0-1.018,0.455-1.018,1.018s0.456,1.02,1.018,1.02    c0.563,0,1.02-0.457,1.02-1.02S13.082,12.483,12.519,12.483z M12.31,14.149c-0.288,0-0.522-0.234-0.522-0.521    c0-0.289,0.234-0.523,0.522-0.523c0.289,0,0.523,0.234,0.523,0.523C12.833,13.915,12.599,14.149,12.31,14.149z" data-original="#030104" class="active-path" data-old_color="#3a3a3a" fill="#3a3a3a"/>
		<path d="M15.082,1.406c0.557,0.013,0.715,0.267,0.715,0.583c0,0.424-0.497,0.824-0.97,1.345    c-0.667,0.715-0.994,1.309-1.091,1.963c-0.012,0.097-0.024,0.206-0.036,0.314h1.696c0.024-0.109,0.036-0.193,0.061-0.291    c0.109-0.545,0.34-0.921,0.813-1.394c0.69-0.69,1.333-1.309,1.333-2.277C17.603,0.655,16.754,0,15.591,0    c-0.909,0-1.601,0.243-2.048,0.522l0.229,1.223C14.099,1.54,14.547,1.406,15.082,1.406z" data-original="#030104" class="active-path" data-old_color="#3a3a3a" fill="#3a3a3a"/>
		<path d="M13.166,7.443c0,0.569,0.388,0.994,0.969,0.994c0.691,0,1.188-0.497,1.188-1.188    c0-0.594-0.399-1.019-0.993-1.019C13.638,6.23,13.166,6.8,13.166,7.443z" data-original="#030104" class="active-path" data-old_color="#3a3a3a" fill="#3a3a3a"/>
		<path d="M10.743,15.608c-1.26-0.334-3,1.234-3.073,1.301l0.355,0.393c0.442-0.402,1.771-1.395,2.582-1.182    c0.297,0.08,0.508,0.32,0.643,0.736l0.503-0.162C11.561,16.1,11.221,15.737,10.743,15.608z" data-original="#030104" class="active-path" data-old_color="#3a3a3a" fill="#3a3a3a"/>
	</g>
</g></g> </svg>
